<?xml version="1.0" encoding="utf-8"?>
<!-- Generator: Adobe Illustrator 23.1.0, SVG Export Plug-In . SVG Version: 6.00 Build 0)  -->
<svg version="1.1" id="图层_1" xmlns="http://www.w3.org/2000/svg" xmlns:xlink="http://www.w3.org/1999/xlink" x="0px" y="0px"
	 viewBox="0 0 600 600" style="enable-background:new 0 0 600 600;" xml:space="preserve">
<style type="text/css">
	.st0{fill:#FFFFFF;stroke:#768540;stroke-miterlimit:10;}
	.st1{fill:#768540;}
	.st2{fill:none;stroke:#768540;stroke-width:17;stroke-linecap:round;stroke-miterlimit:10;}
	.st3{fill:#FFFFFF;}
	.st4{fill:none;stroke:#768540;stroke-width:17;stroke-miterlimit:10;}
	.st5{fill:none;stroke:#768540;stroke-width:5.8918;stroke-linecap:round;stroke-miterlimit:10;}
	.st6{fill:none;stroke:#768540;stroke-width:8.106;stroke-linecap:round;stroke-miterlimit:10;}
	.st7{fill:none;stroke:#768540;stroke-width:5.855;stroke-linecap:round;stroke-miterlimit:10;}
	.st8{fill:none;stroke:#768540;stroke-width:5.3408;stroke-linecap:round;stroke-miterlimit:10;}
	.st9{fill:#FFFFFF;stroke:#768540;stroke-width:11.1209;stroke-miterlimit:10;}
	.st10{fill:#FFFFFF;stroke:#768540;stroke-width:14.6084;stroke-miterlimit:10;}
	.st11{fill:#FFFFFF;stroke:#768540;stroke-width:14.7295;stroke-linecap:square;stroke-linejoin:round;stroke-miterlimit:10;}
	.st12{fill:none;stroke:#768540;stroke-width:11.7836;stroke-linecap:round;stroke-miterlimit:10;}
	.st13{fill:#FFFFFF;stroke:#768540;stroke-width:11.7836;stroke-linecap:round;stroke-linejoin:round;stroke-miterlimit:10;}
	.st14{fill:#FFFFFF;stroke:#768540;stroke-width:14.7295;stroke-linecap:round;stroke-linejoin:round;stroke-miterlimit:10;}
	.st15{fill:none;stroke:#768540;stroke-width:14.7295;stroke-linecap:round;stroke-linejoin:round;stroke-miterlimit:10;}
	.st16{fill:none;stroke:#768540;stroke-width:15.0769;stroke-linecap:round;stroke-linejoin:round;stroke-miterlimit:10;}
	.st17{clip-path:url(#SVGID_2_);fill:#768540;}
</style>
<g id="evckkcist522_1_" transform="matrix(1 0 0 1 40.16299999999997 40.18400000000003)">
	<g id="evckkcist524_1_" transform="matrix(1 0 0 1 -4 -6.04800000000000)">
		<g id="evckkcist525_1_" transform="matrix(1 0 0 1 13.83700000000000 14.81600000000000)">
			<g id="evckkcist526_3_">
				<path id="evckkcist527_3_" class="st9" d="M175.7,331.07L175.7,331.07l-14.48-0.33c-20.37-2.07-36.75-9.7-45.82-21.79
					c-7.96-10.18-10.5-23.37-7.78-38.82c9.39-51.86,32.3-111.21,66.82-108.35c15.11,1.27,26.57,17.18,33.41,30.71
					c7.87,11.65,21.02,37.58,27.72,52.99c19.98,45.97-2.86,62.07-2.86,62.07C222.83,316.94,193.52,330.43,175.7,331.07z"/>
				<path id="evckkcist528_1_" class="st1" d="M172.64,245.59c-1.81,0-3.54,0.72-4.82,2c-1.28,1.28-2,3.01-2,4.82v23.16l-17.41-9.24
					c-2.16-1.15-4.76-1.06-6.84,0.23c-2.07,1.29-3.3,3.59-3.22,6.04c0.08,2.44,1.46,4.65,3.62,5.8l0.07,0.04L165.68,291v56.51l0,0
					v35.06c-0.02,3.79,3.04,6.87,6.83,6.89h0.06c3.81-0.11,6.85-3.21,6.89-7.03V252.41C179.45,248.65,176.4,245.6,172.64,245.59z"/>
			</g>
			<g id="evckkcist529_1_">
				<g id="evckkcist526_2_">
					<path id="evckkcist527_2_" class="st10" d="M302.38,334.04L302.38,334.04l-18.48-0.44c-25.99-2.8-46.9-13.12-58.48-29.47
						c-10.15-13.77-13.4-31.6-9.93-52.49c11.98-70.12,41.22-150.36,85.28-146.49c19.29,1.72,33.91,23.23,42.64,41.52
						c10.05,15.75,26.82,50.82,35.37,71.65c25.49,62.16-3.64,83.93-3.64,83.93C362.54,314.94,325.13,333.18,302.38,334.04z"/>
				</g>
				<path id="evckkcist5211_1_" class="st1" d="M333.16,195.11c-2.88-2.7-7.41-2.55-10.11,0.33c-0.09,0.1-0.19,0.21-0.28,0.31
					l-27.6,31.22v-50.62c0.1-2.6-1.23-5.05-3.46-6.38s-5.02-1.33-7.26,0c-2.24,1.33-3.56,3.78-3.46,6.38v104.39l-24.62-29.49
					c-2.51-3-6.95-3.44-10-0.99c-3.05,2.45-3.58,6.88-1.2,9.98l32.33,38.8c0.82,1.1,1.99,1.88,3.31,2.21v89.38l0,0
					c0,3.96,3.21,7.17,7.17,7.17c3.96,0,7.17-3.21,7.17-7.17l0,0v-143c0.91-0.39,1.72-0.99,2.37-1.74l35.96-40.7
					C336.18,202.32,336.03,197.81,333.16,195.11z"/>
			</g>
		</g>
	</g>
</g>
</svg>
