<?xml version="1.0" encoding="utf-8"?>
<!-- Generator: Adobe Illustrator 23.1.0, SVG Export Plug-In . SVG Version: 6.00 Build 0)  -->
<svg version="1.1" id="图层_1" xmlns="http://www.w3.org/2000/svg" xmlns:xlink="http://www.w3.org/1999/xlink" x="0px" y="0px"
	 viewBox="0 0 600 600" style="enable-background:new 0 0 600 600;" xml:space="preserve">
<style type="text/css">
	.st0{fill:#FFFFFF;stroke:#768540;stroke-miterlimit:10;}
	.st1{fill:#768540;}
	.st2{fill:none;stroke:#768540;stroke-width:17;stroke-linecap:round;stroke-miterlimit:10;}
	.st3{fill:#FFFFFF;}
	.st4{fill:none;stroke:#768540;stroke-width:17;stroke-miterlimit:10;}
	.st5{fill:none;stroke:#768540;stroke-width:5.8918;stroke-linecap:round;stroke-miterlimit:10;}
	.st6{fill:none;stroke:#768540;stroke-width:8.106;stroke-linecap:round;stroke-miterlimit:10;}
	.st7{fill:none;stroke:#768540;stroke-width:5.855;stroke-linecap:round;stroke-miterlimit:10;}
	.st8{fill:none;stroke:#768540;stroke-width:5.3408;stroke-linecap:round;stroke-miterlimit:10;}
	.st9{fill:#FFFFFF;stroke:#768540;stroke-width:11.1209;stroke-miterlimit:10;}
	.st10{fill:#FFFFFF;stroke:#768540;stroke-width:14.6084;stroke-miterlimit:10;}
	.st11{fill:#FFFFFF;stroke:#768540;stroke-width:14.7295;stroke-linecap:square;stroke-linejoin:round;stroke-miterlimit:10;}
	.st12{fill:none;stroke:#768540;stroke-width:11.7836;stroke-linecap:round;stroke-miterlimit:10;}
	.st13{fill:#FFFFFF;stroke:#768540;stroke-width:11.7836;stroke-linecap:round;stroke-linejoin:round;stroke-miterlimit:10;}
	.st14{fill:#FFFFFF;stroke:#768540;stroke-width:14.7295;stroke-linecap:round;stroke-linejoin:round;stroke-miterlimit:10;}
	.st15{fill:none;stroke:#768540;stroke-width:14.7295;stroke-linecap:round;stroke-linejoin:round;stroke-miterlimit:10;}
	.st16{fill:none;stroke:#768540;stroke-width:15.0769;stroke-linecap:round;stroke-linejoin:round;stroke-miterlimit:10;}
	.st17{clip-path:url(#SVGID_2_);fill:#768540;}
</style>
<path class="st0" d="M287.5,176.5c0,0,76,3,85,76c0,0,62.44-13.2,85.72,39.4c23.28,52.6-11.72,108.6-51.72,108.6s-212,0-212,0
	s-86-13-53-111c0,0,32-49,68-40C209.5,249.5,223.5,182.5,287.5,176.5z"/>
<g>
	<g id="e4pnx007qm7v2" transform="matrix(1 0 0 1 40.16300000000003 40.18400000000001)">
		<path id="e4pnx007qm7v5" class="st1" d="M340.16,371.2l-172.63-0.2h-1.58c-1.19,0-2.77,0.2-3.17,0.2
			c-20.99-0.05-40.95-9.09-54.84-24.82c-14.48-16.27-22.39-37.35-22.18-59.13c0-46.21,34.84-83.75,78-83.95
			c8.71-43.39,45.14-75.28,87.11-75.28c22.86,0.11,44.73,9.33,60.78,25.62c14,14.12,23.45,32.12,27.12,51.66
			c5.46-1.22,11.04-1.83,16.63-1.82c13.02,0,25.8,3.49,37.02,10.09c4.04,2.41,5.44,7.59,3.17,11.7c-1.08,1.96-2.91,3.41-5.07,4.01
			c-2.16,0.61-4.47,0.32-6.42-0.78c-8.72-5.08-18.62-7.79-28.71-7.87c-7.04-0.04-14.03,1.26-20.59,3.83l-10.49,4.04l-0.99-11.3
			c-3.36-40.97-34.65-71.86-72.46-71.86c-36.03,0-66.92,29.26-72.06,68.21l-0.99,8.07l-8.31-0.81c-1.98-0.2-4.16-0.4-6.14-0.4
			c-33.65,0-61.17,29.87-61.17,66.8c0,35.3,24.75,64.18,55.83,66.8h10.49l171.44,0.2c2.37,0,4.75,0,7.13-0.2
			c2.57,0,5.15-0.2,7.92-0.2c28.9,0,54.05-22.4,59.79-53.08c0.9-4.59,5.28-7.64,9.9-6.87c4.57,1.03,7.53,5.47,6.73,10.09
			c-7.52,38.74-39.59,67-76.42,67c-2.77,0-5.15,0-7.72,0.2L340.16,371.2z"/>
		<path id="e4pnx007qm7v6" class="st1" d="M240.17,293.06c-0.05,3.17-0.58,6.31-1.56,9.33c-1.15,3.55-2.9,6.88-5.18,9.84
			c-2.35,3.38-5.57,6.07-9.33,7.77c-4.05,2.18-8.61,3.25-13.21,3.11c-3.49,0-6.97-0.43-10.36-1.3c-2.98-0.91-5.78-2.31-8.29-4.15
			c-2.77-2.05-5.14-4.59-7-7.5c-2-3-3.65-6.21-4.92-9.59c-1.34-3.71-2.38-7.52-3.11-11.4c-0.74-4.19-1.09-8.44-1.04-12.69
			c-0.12-6.65,0.76-13.29,2.59-19.68c1.46-5.34,3.92-10.35,7.25-14.77c2.84-3.92,6.57-7.11,10.88-9.33
			c14.27-7.16,31.64-1.78,39.37,12.18c2.2,3.7,3.44,7.89,3.63,12.18c0.04,2.05-0.6,4.05-1.81,5.7c-0.9,1.43-2.46,2.31-4.15,2.33
			c-1.55,0.14-3.07-0.44-4.15-1.56c-1.27-1.76-2.31-3.68-3.11-5.7c-1.47-3.83-3.77-7.28-6.74-10.1c-2.56-2.28-5.9-3.48-9.33-3.37
			c-5.96,0.02-11.42,3.3-14.25,8.55c-3.63,5.7-5.18,13.99-5.18,24.61c-0.15,5.96,0.64,11.9,2.33,17.61
			c1.14,4.06,3.49,7.67,6.74,10.36c6.18,4.68,14.78,4.46,20.72-0.52c3.17-3.23,5.41-7.26,6.48-11.66c0.41-2.11,1.2-4.13,2.33-5.96
			c0.92-1.54,2.61-2.44,4.4-2.33c1.76,0.02,3.4,0.89,4.4,2.33C239.68,289.07,240.23,291.05,240.17,293.06z M284.72,229.32
			c6.84-0.22,13.56,1.78,19.17,5.7c5.48,4.22,9.7,9.86,12.18,16.32c2.97,7.94,4.38,16.39,4.15,24.87
			c0.07,6.46-0.71,12.91-2.33,19.17c-1.34,5.37-3.62,10.45-6.74,15.02c-2.84,3.99-6.56,7.27-10.88,9.59
			c-4.65,2.36-9.81,3.51-15.02,3.37c-5.2,0.02-10.33-1.13-15.02-3.37c-4.39-2.31-8.2-5.59-11.14-9.59
			c-3.06-4.6-5.34-9.68-6.74-15.02c-1.6-6.26-2.39-12.7-2.33-19.17c-0.07-6.46,0.71-12.91,2.33-19.17c1.32-5.34,3.7-10.36,7-14.77
			c2.84-3.92,6.57-7.11,10.88-9.33C274.66,230.51,279.66,229.26,284.72,229.32L284.72,229.32z M305.18,276.21
			c0.17-5.89-0.71-11.77-2.59-17.36c-1.38-4.29-3.89-8.14-7.25-11.14c-3.04-2.57-6.9-3.95-10.88-3.89c-2.8,0.04-5.56,0.75-8.03,2.07
			c-2.55,1.42-4.69,3.47-6.22,5.96c-1.98,3.09-3.38,6.51-4.15,10.1c-1.07,4.5-1.6,9.11-1.56,13.73c-0.05,4.71,0.47,9.41,1.56,13.99
			c0.89,3.67,2.38,7.17,4.4,10.36c1.68,2.52,3.89,4.64,6.48,6.22c2.46,1.35,5.22,2.06,8.03,2.07c3.75-0.06,7.39-1.33,10.36-3.63
			c3.42-2.9,6.01-6.65,7.5-10.88c1.74-5.7,2.53-11.64,2.35-17.59V276.21z M337.56,313.25h15.02c1.25-0.06,2.48,0.41,3.37,1.3
			c0.84,0.82,1.31,1.94,1.3,3.11c0.06,1.13-0.31,2.24-1.04,3.11c-0.68,0.88-1.74,1.36-2.85,1.3h-21.25
			c-1.32,0.09-2.59-0.5-3.37-1.56c-0.85-1.02-1.3-2.3-1.3-3.63c0.08-1.24,0.35-2.46,0.78-3.63c0.37-1.19,0.89-2.32,1.56-3.37
			c2.59-3.37,4.92-6.22,6.99-8.81c2.07-2.33,3.63-3.89,4.4-4.66c1.44-1.34,2.74-2.81,3.89-4.4c0.98-1.35,1.76-2.83,2.33-4.4
			c0.49-1.42,0.75-2.9,0.78-4.4c0.02-1.42-0.25-2.83-0.78-4.14c-0.48-1.16-1.29-2.15-2.33-2.85c-0.97-0.73-2.16-1.09-3.37-1.04
			c-2.61,0.15-4.91,1.75-5.96,4.15c-0.48,0.99-0.83,2.03-1.04,3.11c-0.43,1.33-0.95,2.63-1.56,3.89c-0.61,0.82-1.57,1.3-2.59,1.3
			c-0.95,0-1.83-0.49-2.33-1.3c-0.69-0.99-1.05-2.16-1.04-3.37c-0.01-1.78,0.35-3.54,1.04-5.18c0.55-1.79,1.42-3.46,2.59-4.92
			c1.22-1.48,2.72-2.71,4.4-3.63c2.01-1,4.24-1.45,6.48-1.3c2.62-0.11,5.22,0.52,7.5,1.81c1.38,0.81,2.61,1.87,3.63,3.11
			c1.08,1.38,1.87,2.97,2.33,4.66c0.53,1.85,0.79,3.77,0.78,5.7c0.08,2.87-0.54,5.71-1.81,8.29c-0.97,2.12-2.19,4.12-3.63,5.96
			c-1.3,1.56-3.37,3.63-6.22,6.74c-2.13,2.2-4.12,4.54-5.96,7c0.26,0.26-0.26,1.04-0.78,2.07H337.56z"/>
	</g>
	<path class="st2" d="M398.5,252.5c0,0,80,6,64,93"/>
</g>
</svg>
