<?xml version="1.0" encoding="utf-8"?>
<!-- Generator: Adobe Illustrator 23.1.0, SVG Export Plug-In . SVG Version: 6.00 Build 0)  -->
<svg version="1.1" id="图层_1" xmlns="http://www.w3.org/2000/svg" xmlns:xlink="http://www.w3.org/1999/xlink" x="0px" y="0px"
	 viewBox="0 0 600 600" style="enable-background:new 0 0 600 600;" xml:space="preserve">
<style type="text/css">
	.st0{fill:#FFFFFF;stroke:#768540;stroke-miterlimit:10;}
	.st1{fill:#768540;}
	.st2{fill:none;stroke:#768540;stroke-width:17;stroke-linecap:round;stroke-miterlimit:10;}
	.st3{fill:#FFFFFF;}
	.st4{fill:none;stroke:#768540;stroke-width:17;stroke-miterlimit:10;}
	.st5{fill:none;stroke:#768540;stroke-width:5.8918;stroke-linecap:round;stroke-miterlimit:10;}
	.st6{fill:none;stroke:#768540;stroke-width:8.106;stroke-linecap:round;stroke-miterlimit:10;}
	.st7{fill:none;stroke:#768540;stroke-width:5.855;stroke-linecap:round;stroke-miterlimit:10;}
	.st8{fill:none;stroke:#768540;stroke-width:5.3408;stroke-linecap:round;stroke-miterlimit:10;}
	.st9{fill:#FFFFFF;stroke:#768540;stroke-width:11.1209;stroke-miterlimit:10;}
	.st10{fill:#FFFFFF;stroke:#768540;stroke-width:14.6084;stroke-miterlimit:10;}
	.st11{fill:#FFFFFF;stroke:#768540;stroke-width:14.7295;stroke-linecap:square;stroke-linejoin:round;stroke-miterlimit:10;}
	.st12{fill:none;stroke:#768540;stroke-width:11.7836;stroke-linecap:round;stroke-miterlimit:10;}
	.st13{fill:#FFFFFF;stroke:#768540;stroke-width:11.7836;stroke-linecap:round;stroke-linejoin:round;stroke-miterlimit:10;}
	.st14{fill:#FFFFFF;stroke:#768540;stroke-width:14.7295;stroke-linecap:round;stroke-linejoin:round;stroke-miterlimit:10;}
	.st15{fill:none;stroke:#768540;stroke-width:14.7295;stroke-linecap:round;stroke-linejoin:round;stroke-miterlimit:10;}
	.st16{fill:none;stroke:#768540;stroke-width:15.0769;stroke-linecap:round;stroke-linejoin:round;stroke-miterlimit:10;}
	.st17{clip-path:url(#SVGID_2_);fill:#768540;}
</style>
<g>
	<g id="eiw2os1gt30a2" transform="matrix(1 0 0 1 0.16300000000000 0.36700000000000)">
		<circle id="eiw2os1gt30a5" class="st3" cx="287.51" cy="304.95" r="154.68"/>
		<circle class="st4" cx="287.34" cy="305.13" r="154"/>
	</g>
	<g>
		<path class="st1" d="M186.97,182.78c-2.12,16.03,8.82,31.41,25.86,30.34c9.27-0.59,16.85-5.16,25.41-8.16
			c9.08-3.2,15.87-0.56,23.05,5.42c1.05,0.88,3.66,2.45,4.18,3.72c0.42,1.08,0.23,0.62-0.85,2.09c-2.68,3.56-5.62,6.5-7.18,10.78
			c-2.74,7.41-1.73,16.13,2.74,22.63c10.68,15.58,30.07,11.49,46.01,11c17.37-0.55,31.81,14.3,22.56,31.32
			c-7.71,14.14-22.53,24.72-38.63,26.71c-9.89,1.24-15.61-2.45-22.17-9.27c-6.24-6.5-13-10.84-22.04-12.05
			c-13.55-1.8-37.26-0.69-42.61,14.79c-3.2,9.27-0.98,21.16-0.69,30.79c0.13,4.15,2.12,11.85-2.25,14.07
			c-3.59,1.83-8.78,1.14-12.38-0.33c-8.52-3.52-12.51-12.6-22.3-14.2c-9.31-1.5-17.63,2.74-22.99,10.19
			c-5.78,8,7.51,15.64,13.22,7.74c5.71-7.93,13.32,1.57,17.9,5.29c6.6,5.35,15.12,8.23,23.64,7.48c7.71-0.68,15.64-4.21,19.04-11.59
			c3.85-8.33,1.4-20.34,1.14-29.22c-0.13-4.28-0.95-9.18-0.26-13.39c0.72-4.44,4.99-5.06,8.91-5.71c7.71-1.3,18.06-2.71,25.01,1.67
			c7.35,4.6,11.43,12.6,19.63,16.29c7.64,3.43,16.07,3.49,24.2,2.12c29.39-4.96,67.95-40.82,45.62-71.74
			c-4.73-6.6-11.37-11.59-19.04-14.27c-9.04-3.17-18.68-1.63-27.98-0.95c-6.82,0.49-17.34,1.04-21.26-5.98
			c-4.57-8.16,4.67-13.45,7.58-20.05c4.15-9.4-2.48-16.39-9.4-21.97c-7.51-6.04-16.19-10.94-26.16-10.25
			c-10.42,0.72-18.78,7.08-28.74,9.31c-10.48,2.35-14.66-5.06-13.39-14.53c0.55-4.15-3.92-7.61-7.64-7.64
			C190.04,175.08,187.49,178.7,186.97,182.78L186.97,182.78z M323.89,452.76c-3.46-9.27-10.35-14.63-17.24-21.29
			c-7.93-7.71-8.98-17.37-6.17-27.79c2.68-10.02,8.2-19.2,15.67-26.38c6.3-6.01,16-11.56,22.53-3.13
			c5.19,6.69,8.59,14.86,17.18,17.89c9.99,3.56,20.67-1.47,28.6-7.45c15.48-11.66,27.3-38.17,49.05-38.4
			c9.83-0.1,9.86-15.41,0-15.31c-19.62,0.2-32.85,14.56-44.87,28.28c-5.75,6.56-12.02,13.94-20.24,17.37
			c-9.11,3.79-11.56-3.1-16.07-9.5c-4.57-6.5-10.22-11.59-18.38-12.54c-8.85-1.04-17.37,2.87-24.23,8.16
			c-14.24,11.07-23.97,28.87-25.8,46.79c-0.98,9.86,1.14,19.82,7.31,27.69c5.23,6.69,14.86,11.53,17.89,19.66
			C312.56,465.96,327.38,462.01,323.89,452.76L323.89,452.76z M323.89,452.76"/>
	</g>
</g>
</svg>
