<svg width="65" height="65" xmlns="http://www.w3.org/2000/svg">
 <!-- Created with SVG Editor - http://github.com/mzalive/SVG Editor/ -->

 <g>
  <title>background</title>
  <rect fill="none" id="canvas_background" height="67" width="67" y="-1" x="-1"/>
  <g wfd-invisible="true" display="none" overflow="visible" y="0" x="0" height="100%" width="100%" id="canvasGrid">
   <rect fill="url(#gridpattern)" stroke-width="0" y="0" x="0" height="100%" width="100%"/>
  </g>
 </g>
 <g>
  <title>Layer 1</title>
  <g stroke="null" id="svg_24">
   <path stroke="null" id="svg_4" fill="white" d="m64.739935,32.554971c0,17.775325 -14.409666,32.184991 -32.184991,32.184991c-17.775325,0 -32.184991,-14.409666 -32.184991,-32.184991c0,-17.775325 14.409666,-32.184991 32.184991,-32.184991c17.775325,0 32.184991,14.409666 32.184991,32.184991zm-62.568218,0c0,16.780165 13.603061,30.383226 30.383226,30.383226c16.780165,0 30.383226,-13.603061 30.383226,-30.383226c0,-16.780165 -13.603061,-30.383226 -30.383226,-30.383226c-16.780165,0 -30.383226,13.603061 -30.383226,30.383226z"/>
   <path stroke="null" id="svg_5" fill="white" d="m58.79809,32.554971c0,14.493644 -11.749502,26.243147 -26.243147,26.243147c-14.493644,0 -26.243147,-11.749502 -26.243147,-26.243147c0,-14.493644 11.749502,-26.243147 26.243147,-26.243147c14.493644,0 26.243147,11.749502 26.243147,26.243147zm-50.840502,0c0,13.58474 11.012615,24.597355 24.597355,24.597355c13.58474,0 24.597355,-11.012615 24.597355,-24.597355c0,-13.58474 -11.012615,-24.597355 -24.597355,-24.597355c-13.58474,0 -24.597355,11.012615 -24.597355,24.597355z"/>
   <path stroke="null" id="svg_6" fill="white" d="m41.962864,32.554971c0,5.195846 -4.212075,9.407921 -9.407921,9.407921c-5.195846,0 -9.407921,-4.212075 -9.407921,-9.407921c0,-5.195846 4.212075,-9.407921 9.407921,-9.407921c5.195846,0 9.407921,4.212075 9.407921,9.407921zm-17.235509,0c0,4.323088 3.5045,7.827588 7.827588,7.827588c4.323088,0 7.827588,-3.5045 7.827588,-7.827588c0,-4.323088 -3.5045,-7.827588 -7.827588,-7.827588c-4.323088,0 -7.827588,3.5045 -7.827588,7.827588z"/>
   <circle stroke="null" transform="matrix(0.9903074288284662,0,0,0.9903074288284662,-586.196782527837,-586.1967418475954) " id="svg_7" fill="white" r="1.5" cy="624.807706" cx="624.807719"/>
   <path stroke="null" id="svg_8" fill="white" d="m32.05979,24.137358c0,-3.121152 -0.422663,-6.211802 -1.243826,-9.09538c-0.821163,-2.883577 -2.024783,-5.503733 -3.542033,-7.710732l-0.98595,1.434064c1.387916,2.018643 2.488841,4.415187 3.23989,7.052771c0.751148,2.637486 1.137665,5.464417 1.137665,8.319276l1.394254,0z"/>
   <path stroke="null" id="svg_9" fill="white" d="m35.096468,24.604189c1.035069,-2.94458 1.661142,-6.000471 1.842665,-8.99318c0.181424,-2.992808 -0.085265,-5.863709 -0.784819,-8.449006l-1.405642,1.025958c0.639937,2.364656 0.883849,4.990654 0.717874,7.728062c-0.166075,2.737408 -0.73867,5.532551 -1.685404,8.22589l1.315326,0.462276z"/>
   <path stroke="null" id="svg_10" fill="white" d="m38.88588,25.758887c1.823057,-2.533404 3.285147,-5.288935 4.302886,-8.109132c1.017739,-2.820197 1.571123,-5.649902 1.62866,-8.327594l-1.637869,0.588144c-0.052585,2.449129 -0.558731,5.037397 -1.48962,7.617049c-0.930889,2.579553 -2.268299,5.099885 -3.935779,7.417205l1.131723,0.81433z"/>
   <path stroke="null" id="svg_11" fill="white" d="m41.009693,28.769719c2.776525,-1.425746 5.332706,-3.213647 7.522771,-5.261305c2.189966,-2.047758 3.970836,-4.315364 5.241004,-6.673286l-1.726007,-0.221928c-1.16173,2.156692 -2.790686,4.230791 -4.793781,6.103859c-2.003194,1.872968 -4.34131,3.508263 -6.880854,4.812399l0.636867,1.240261z"/>
   <path stroke="null" id="svg_12" fill="white" d="m41.390763,32.529421c3.116299,-0.174492 6.178528,-0.769271 9.011699,-1.750368c2.833171,-0.980999 5.381826,-2.329203 7.500588,-3.967469l-1.486848,-0.90425c-1.937933,1.498533 -4.269215,2.731664 -6.860652,3.629081c-2.591436,0.897318 -5.392323,1.441293 -8.242725,1.600931l0.077937,1.392075z"/>
   <path stroke="null" id="svg_13" fill="white" d="m40.467896,35.74485c3.026181,0.964262 6.154464,1.501801 9.200055,1.580828c3.04569,0.079027 5.946895,-0.302044 8.53239,-1.120731l-1.089734,-1.367714c-2.364854,0.74887 -5.018482,1.097459 -7.804316,1.025166c-2.785735,-0.072292 -5.647129,-0.56398 -8.415038,-1.445948l-0.423356,1.328398z"/>
   <path stroke="null" id="svg_14" fill="white" d="m38.979662,38.604165c2.386839,2.089945 5.027791,3.842492 7.772131,5.15762c2.74434,1.315029 5.538393,2.166892 8.222424,2.506864l-0.449302,-1.699467c-2.454972,-0.310957 -5.010559,-1.09013 -7.520791,-2.293057c-2.510132,-1.202827 -4.925789,-2.805838 -7.109021,-4.717527l-0.91544,1.045567z"/>
   <path stroke="null" id="svg_15" fill="white" d="m36.245027,39.915926c1.329884,2.971219 3.02123,5.745764 4.977384,8.165184c1.956154,2.41942 4.138891,4.43628 6.42353,5.935606l0.262431,-1.756013c-2.089648,-1.371378 -4.086207,-3.216221 -5.875494,-5.429162c-1.789188,-2.21304 -3.336247,-4.750802 -4.552641,-7.468503l-1.23521,0.552889z"/>
   <path stroke="null" id="svg_16" fill="white" d="m28.778208,24.680244c-2.464776,-5.801617 -6.413033,-10.692448 -10.97627,-13.596624l-0.346707,1.705309c4.173948,2.656401 7.785302,7.129916 10.039737,12.436479l1.28324,-0.545164z"/>
   <path stroke="null" id="svg_17" fill="white" d="m26.106557,26.787321c-4.150775,-4.743969 -9.427232,-8.159935 -14.668434,-9.496652l0.20232,1.728384c4.793979,1.222634 9.620143,4.347153 13.416784,8.686383l1.04933,-0.918114z"/>
   <path stroke="null" id="svg_18" fill="white" d="m24.9987,30.356488c-2.812572,-1.63678 -5.826177,-2.858919 -8.854141,-3.590954c-3.028063,-0.731936 -6.005917,-0.958122 -8.749168,-0.664496l0.800763,1.568152c2.509241,-0.26867 5.232983,-0.061795 8.002575,0.607752c2.769692,0.669547 5.526114,1.787505 8.098635,3.284553l0.701336,-1.205006z"/>
   <path stroke="null" id="svg_19" fill="white" d="m24.180508,33.134895c-3.161953,-0.409888 -6.348366,-0.378297 -9.369299,0.093089c-3.021032,0.471386 -5.814986,1.372764 -8.21559,2.650558l1.321169,1.148559c2.19571,-1.168761 4.751297,-1.993291 7.514552,-2.424372c2.763255,-0.43118 5.67773,-0.460097 8.569922,-0.085166l0.179246,-1.382667z"/>
   <path stroke="null" id="svg_20" fill="white" d="m25.012267,35.760398c-3.036085,0.97367 -5.906491,2.357328 -8.440291,4.068678c-2.533801,1.71135 -4.679104,3.715336 -6.308357,5.892725l1.684117,0.477625c1.490314,-1.991508 3.452608,-3.824567 5.770224,-5.389847c2.317616,-1.56528 4.943021,-2.830992 7.72014,-3.721476l-0.425832,-1.327705z"/>
   <path stroke="null" id="svg_21" fill="white" d="m26.434447,38.800048c-2.442989,2.048748 -4.577696,4.414592 -6.276866,6.956613c-1.69907,2.541921 -2.928042,5.208126 -3.613632,7.83967l1.739772,-0.194199c0.627162,-2.407041 1.75126,-4.845772 3.305349,-7.170816c1.554188,-2.325044 3.506679,-4.489064 5.741307,-6.363022l-0.895931,-1.068245z"/>
   <path stroke="null" id="svg_22" fill="white" d="m29.638785,40.588939c-1.434262,2.847629 -2.460023,5.864502 -3.01608,8.871075c-0.556058,3.006672 -0.631123,5.941448 -0.22074,8.629737l1.52131,-0.866123c-0.375327,-2.458933 -0.306698,-5.143261 0.201924,-7.893344c0.508622,-2.749985 1.446839,-5.509476 2.758798,-8.114084l-1.245213,-0.627261z"/>
   <path stroke="null" id="svg_23" fill="white" d="m32.909474,40.533383c-0.285704,3.17552 -0.129235,6.35817 0.460097,9.358405c0.589431,3.000235 1.599545,5.756756 2.970526,8.105369l1.095874,-1.365139c-1.253927,-2.148274 -2.177884,-4.669597 -2.717007,-7.413838c-0.539024,-2.744241 -0.682223,-5.65525 -0.420881,-8.55992l-1.388609,-0.124878z"/>
  </g>
 </g>
</svg>